<svg xmlns="http://www.w3.org/2000/svg" viewBox="0 0 128 128"><rect width="128" height="128" fill="#fff"/><g transform="translate(64 70) scale(1.22) translate(-64 -68)"><path d="M30 62c0-24 14-38 34-38s34 14 34 38v40H30z" fill="#111111"/><path d="M42 46c0-12 9-18 22-18s22 6 22 18v40c0 13-10 22-22 22s-22-9-22-22z" fill="#fff" stroke="#111111" stroke-linecap="round" stroke-linejoin="round" stroke-width="3.2"/><path d="M40 52c0-14 10-22 24-22s24 8 24 22c-4-2-8-6-10-10-6 4-26 4-38 10z" fill="#111111"/><ellipse cx="52" cy="70" rx="6.2" ry="4.2" fill="#fff" stroke="#111111" stroke-linecap="round" stroke-linejoin="round" stroke-width="2.4"/><circle cx="52" cy="70" r="2.6" fill="#111111"/><ellipse cx="76" cy="70" rx="6.2" ry="4.2" fill="#fff" stroke="#111111" stroke-linecap="round" stroke-linejoin="round" stroke-width="2.4"/><circle cx="76" cy="70" r="2.6" fill="#111111"/><path d="M54 64v-3M74 64v-3" fill="none" stroke="#111111" stroke-linecap="round" stroke-linejoin="round" stroke-width="1.6"/><path d="M66 70c-1 6 -4 11 -1 14 2 2 5 1 6 -1" fill="none" stroke="#111111" stroke-linecap="round" stroke-linejoin="round" stroke-width="2.4"/><path d="M58 92q6 7 12 0" fill="none" stroke="#111111" stroke-linecap="round" stroke-linejoin="round" stroke-width="2.8"/><circle cx="42" cy="84" r="1.1" fill="#111111"/><circle cx="46" cy="87" r="1.1" fill="#111111"/><circle cx="44" cy="90" r="1.1" fill="#111111"/><circle cx="82" cy="84" r="1.1" fill="#111111"/><circle cx="86" cy="87" r="1.1" fill="#111111"/><circle cx="84" cy="90" r="1.1" fill="#111111"/></g></svg>
