<svg xmlns="http://www.w3.org/2000/svg" viewBox="0 0 128 128"><rect width="128" height="128" fill="#fff"/><g transform="translate(64 70) scale(1.22) translate(-64 -68)"><circle cx="34" cy="54" r="9" fill="#111111"/><circle cx="30" cy="72" r="9" fill="#111111"/><circle cx="34" cy="90" r="9" fill="#111111"/><circle cx="94" cy="54" r="9" fill="#111111"/><circle cx="98" cy="72" r="9" fill="#111111"/><circle cx="94" cy="90" r="9" fill="#111111"/><circle cx="42" cy="38" r="9" fill="#111111"/><circle cx="56" cy="30" r="9" fill="#111111"/><circle cx="72" cy="30" r="9" fill="#111111"/><circle cx="86" cy="38" r="9" fill="#111111"/><circle cx="40" cy="102" r="9" fill="#111111"/><circle cx="88" cy="102" r="9" fill="#111111"/><path d="M34 66c0-18 13-30 30-30s30 12 30 30c0 22-13 38-30 38S34 88 34 66z" fill="#fff" stroke="#111111" stroke-linecap="round" stroke-linejoin="round" stroke-width="3.2"/><circle cx="46" cy="42" r="6" fill="#111111"/><circle cx="60" cy="38" r="6" fill="#111111"/><circle cx="74" cy="40" r="6" fill="#111111"/><circle cx="84" cy="46" r="6" fill="#111111"/><path d="M46 70q6 5 12 0" fill="none" stroke="#111111" stroke-linecap="round" stroke-linejoin="round" stroke-width="2.4"/><path d="M70 70q6 5 12 0" fill="none" stroke="#111111" stroke-linecap="round" stroke-linejoin="round" stroke-width="2.4"/><path d="M81 71l3 -3" fill="none" stroke="#111111" stroke-linecap="round" stroke-linejoin="round" stroke-width="1.8"/><path d="M64 74c-2 4-2 7 1 8" fill="none" stroke="#111111" stroke-linecap="round" stroke-linejoin="round" stroke-width="2.4"/><path d="M58 92c2-4 6-2 6 0 0-2 4-4 6 0-2 4-10 4-12 0z" fill="#111111"/><circle cx="42" cy="84" r="1.1" fill="#111111"/><circle cx="46" cy="87" r="1.1" fill="#111111"/><circle cx="44" cy="90" r="1.1" fill="#111111"/><circle cx="82" cy="84" r="1.1" fill="#111111"/><circle cx="86" cy="87" r="1.1" fill="#111111"/><circle cx="84" cy="90" r="1.1" fill="#111111"/></g></svg>
